name C:\Users\Nicos\Documents\OpenSimProjects\SprintingProject\Study1\PredictiveResults\IC_pred_Sprinting_optimum_26-October-2023__10-52-28___Nominal_p02_maxVel_01.mot
datacolumns 38
datarows 12
range 0.21292536 0.22338888
endheader
                time	/jointset/ground_pelvis/pelvis_tilt/value	/jointset/ground_pelvis/pelvis_list/value	/jointset/ground_pelvis/pelvis_rotation/value	/jointset/ground_pelvis/pelvis_tx/value	/jointset/ground_pelvis/pelvis_ty/value	/jointset/ground_pelvis/pelvis_tz/value	/jointset/hip_r/hip_flexion_r/value	/jointset/hip_r/hip_adduction_r/value	/jointset/hip_r/hip_rotation_r/value	/jointset/knee_r/knee_angle_r/value	/jointset/ankle_r/ankle_angle_r/value	/jointset/subtalar_r/subtalar_angle_r/value	/jointset/mtp_r/mtp_angle_r/value	/jointset/hip_l/hip_flexion_l/value	/jointset/hip_l/hip_adduction_l/value	/jointset/hip_l/hip_rotation_l/value	/jointset/knee_l/knee_angle_l/value	/jointset/ankle_l/ankle_angle_l/value	/jointset/subtalar_l/subtalar_angle_l/value	/jointset/mtp_l/mtp_angle_l/value	/jointset/back/lumbar_extension/value	/jointset/back/lumbar_bending/value	/jointset/back/lumbar_rotation/value	/jointset/acromial_r/arm_flex_r/value	/jointset/acromial_r/arm_add_r/value	/jointset/acromial_r/arm_rot_r/value	/jointset/elbow_r/elbow_flex_r/value	/jointset/radioulnar_r/pro_sup_r/value	/jointset/radius_hand_r/wrist_flex_r/value	/jointset/radius_hand_r/wrist_dev_r/value	/jointset/acromial_l/arm_flex_l/value	/jointset/acromial_l/arm_add_l/value	/jointset/acromial_l/arm_rot_l/value	/jointset/elbow_l/elbow_flex_l/value	/jointset/radioulnar_l/pro_sup_l/value	/jointset/radius_hand_l/wrist_flex_l/value	/jointset/radius_hand_l/wrist_dev_l/value	
          0.21292536	         -3.46994761	          6.03081214	        -10.37157545	          1.85673044	          0.99943526	          0.31613744	         -0.32957886	        -12.78057275	          9.02476662	        -87.27254602	        -23.89318210	        -14.21730561	        -10.47389551	         58.51707965	         -5.70924852	         -1.43555349	        -39.90853578	        -25.51492224	        -27.98958481	         12.03171787	        -21.32369560	        -10.57727291	         10.06162834	         58.03244057	        -17.32969170	         -6.64555570	        107.13338481	         67.09583121	        -23.92508951	          6.18510912	        -56.13287256	        -12.88642187	         -9.87019639	         64.93991462	         65.51932808	        -17.86211532	          6.15253009	
          0.21440541	         -3.49240205	          6.01151591	         -9.99192174	          1.87422929	          1.00008043	          0.31605389	          0.08904822	        -12.65215563	          8.81611006	        -88.19562712	        -23.52013325	        -14.31517894	        -10.47321369	         57.83947489	         -5.27320425	         -1.08003125	        -38.91641486	        -25.73278355	        -28.37602855	         11.68772837	        -21.38374201	        -10.61660723	          9.96140482	         56.18014761	        -17.98815023	         -7.41430042	        106.41438346	         67.86259174	        -23.82517059	          6.13949110	        -55.44614988	        -13.54609420	        -10.46100020	         65.61862153	         65.93509566	        -18.09757197	          6.10691031	
          0.21440541	         -3.49240205	          6.01151591	         -9.99192174	          1.87422929	          1.00008043	          0.31605389	          0.08904822	        -12.65215563	          8.81611006	        -88.19562712	        -23.52013325	        -14.31517894	        -10.47321369	         57.83947489	         -5.27320425	         -1.08003125	        -38.91641486	        -25.73278355	        -28.37602855	         11.68772837	        -21.38374201	        -10.61660723	          9.96140482	         56.18014761	        -17.98815023	         -7.41430042	        106.41438346	         67.86259174	        -23.82517059	          6.13949110	        -55.44614988	        -13.54609420	        -10.46100020	         65.61862153	         65.93509566	        -18.09757197	          6.10691031	
          0.21505175	         -3.50406030	          6.00149392	         -9.82303966	          1.88187888	          1.00035360	          0.31601059	          0.27682306	        -12.59558615	          8.72205498	        -88.59795799	        -23.35508464	        -14.35867494	        -10.47275365	         57.54397905	         -5.08297096	         -0.91989976	        -38.49387931	        -25.82333988	        -28.54781753	         11.52496624	        -21.40700596	        -10.63021870	          9.91763849	         55.36055969	        -18.27460448	         -7.74711348	        106.08339081	         68.19575935	        -23.78159203	          6.11956793	        -55.14040358	        -13.83416355	        -10.71921471	         65.93319398	         66.11701109	        -18.19945782	          6.08699004	
          0.21709392	         -3.54787247	          5.96420380	         -9.27900969	          1.90607625	          1.00118080	          0.31584781	          0.89097917	        -12.41646996	          8.41538060	        -89.86678172	        -22.82805625	        -14.49779523	        -10.47182775	         56.61125513	         -4.48494898	         -0.39941703	        -37.20032373	        -26.09514956	        -29.09971744	         10.96177094	        -21.46905628	        -10.65990917	          9.77956979	         52.73589704	        -19.17194925	         -8.77359291	        104.97003418	         69.23951587	        -23.64343326	          6.05660043	        -54.14838659	        -14.74436339	        -11.52460740	         66.99883412	         66.69218559	        -18.51742897	          6.02402540	
          0.21857397	         -3.58653105	          5.93228105	         -8.87642030	          1.92363626	          1.00174381	          0.31570636	          1.35749852	        -12.28720436	          8.18615241	        -90.78486488	        -22.44212171	        -14.59942977	        -10.47177274	         55.93623380	         -4.05656407	         -0.01310917	        -36.30074638	        -26.28183843	        -29.50420006	         10.51166100	        -21.50271655	        -10.66933304	          9.67990813	         50.80727345	        -19.81262637	         -9.48128587	        104.10036492	         69.98528368	        -23.54225433	          6.01098650	        -53.40211333	        -15.40400236	        -12.08835802	         67.83750472	         67.10892796	        -18.74376254	          5.97841952	
          0.21857397	         -3.58653105	          5.93228105	         -8.87642030	          1.92363626	          1.00174381	          0.31570636	          1.35749852	        -12.28720436	          8.18615241	        -90.78486488	        -22.44212171	        -14.59942977	        -10.47177274	         55.93623380	         -4.05656407	         -0.01310917	        -36.30074638	        -26.28183843	        -29.50420006	         10.51166100	        -21.50271655	        -10.66933304	          9.67990813	         50.80727345	        -19.81262637	         -9.48128587	        104.10036492	         69.98528368	        -23.54225433	          6.01098650	        -53.40211333	        -15.40400236	        -12.08835802	         67.83750472	         67.10892796	        -18.74376254	          5.97841952	
          0.21922031	         -3.60531167	          5.91716587	         -8.69881656	          1.93130998	          1.00197944	          0.31563871	          1.56728085	        -12.23112977	          8.08472646	        -91.18559034	        -22.27279728	        -14.64385005	        -10.47198741	         55.64173154	         -3.87135061	          0.15674816	        -35.91749534	        -26.36146721	        -29.68088866	         10.30537494	        -21.51431492	        -10.67040811	          9.63653944	         49.95983281	        -20.08914260	         -9.77798763	        103.70449366	         70.30751659	        -23.49763927	          5.99106298	        -53.06830080	        -15.69207075	        -12.32665784	         68.22073929	         67.29075423	        -18.84142117	          5.95849941	
          0.22126248	         -3.67279153	          5.86493193	         -8.13203228	          1.95557313	          1.00268014	          0.31540261	          2.25614348	        -12.05600694	          7.76104681	        -92.45174260	        -21.73471304	        -14.78364157	        -10.47288154	         54.71278050	         -3.29583435	          0.69315039	        -34.74329550	        -26.60849527	        -30.23368607	          9.62167397	        -21.53783416	        -10.66189530	          9.50016421	         47.26903301	        -20.94884758	        -10.64983545	        102.39108697	         71.30913333	        -23.35433266	          5.92809554	        -51.97916598	        -16.60227451	        -13.03727681	         69.49738738	         67.86468043	        -19.14492487	          5.89553483	
          0.22274254	         -3.72986979	          5.82297496	         -7.71693815	          1.97317156	          1.00314443	          0.31521105	          2.78140236	        -11.93146624	          7.52483661	        -93.36985085	        -21.34065279	        -14.88436752	        -10.47347346	         54.04124314	         -2.88951620	          1.07715420	        -33.92537253	        -26.78512500	        -30.62355453	          9.10427560	        -21.54182490	        -10.64454859	          9.40176916	         45.31255558	        -21.55626861	        -11.21104174	        101.38290795	         72.01618361	        -23.24771831	          5.88248027	        -51.15267381	        -17.26190472	        -13.50243447	         70.47716347	         68.27951035	        -19.35974641	          5.84992795	
          0.22274254	         -3.72986979	          5.82297496	         -7.71693815	          1.97317156	          1.00314443	          0.31521105	          2.78140236	        -11.93146624	          7.52483661	        -93.36985085	        -21.34065279	        -14.88436752	        -10.47347346	         54.04124314	         -2.88951620	          1.07715420	        -33.92537253	        -26.78512500	        -30.62355453	          9.10427560	        -21.54182490	        -10.64454859	          9.40176916	         45.31255558	        -21.55626861	        -11.21104174	        101.38290795	         72.01618361	        -23.24771831	          5.88248027	        -51.15267381	        -17.26190472	        -13.50243447	         70.47716347	         68.27951035	        -19.35974641	          5.84992795	
          0.22338888	         -3.75703625	          5.80360760	         -7.53477077	          1.98085980	          1.00333523	          0.31512220	          3.01792582	        -11.87781880	          7.42159781	        -93.77101333	        -21.16718222	        -14.92821818	        -10.47376101	         53.74846495	         -2.71530575	          1.24243390	        -33.57642915	        -26.86207748	        -30.78950702	          8.87481984	        -21.54000579	        -10.63406090	          9.35885651	         44.45809084	        -21.81675774	        -11.43554001	        100.92868379	         72.31907158	        -23.20029506	          5.86255668	        -50.78080727	        -17.54996226	        -13.68985436	         70.91745138	         68.46024837	        -19.45211239	          5.83000732	
